<svg width="84" height="36" viewBox="0 0 84 36" fill="none" xmlns="http://www.w3.org/2000/svg">
<g clip-path="url(#clip0_8202_61875)">
<path d="M14.7721 2.85989C15.1453 3.04525 15.565 3.57755 15.8467 3.8923C18.2636 6.59225 19.5314 10.031 19.3072 13.6509C19.0901 17.1538 17.3602 20.2642 14.7637 22.563C14.272 22.2269 13.8221 21.7485 13.4287 21.3038C11.2229 18.8091 10.0139 15.3041 10.2245 11.9788C10.4417 8.55047 12.1942 5.12 14.7721 2.85989Z" fill="#0D0B0A"/>
<path d="M25.0582 7.76266C25.0653 7.77479 25.0735 7.78644 25.0797 7.7991C25.2172 8.07921 25.257 8.52363 25.2919 8.83453C25.4736 10.4513 25.3232 12.0723 24.7546 13.6031C23.334 17.4276 20.0503 20.2428 16.4197 21.9117C16.3769 21.9112 16.4056 21.9146 16.3403 21.8766C16.5622 21.5137 16.8716 21.1893 17.1276 20.8483C17.5191 20.3158 17.8739 19.7576 18.1894 19.1774C19.3015 17.1309 19.8334 14.8803 19.8317 12.5592C19.8313 11.9 19.8162 11.2416 19.6254 10.6053C19.9659 10.2275 20.3831 9.90897 20.7881 9.60251C22.0932 8.61483 23.4082 7.92747 25.0582 7.76266Z" fill="#0D0B0A"/>
<path d="M4.44035 7.77867C4.63628 7.78622 4.83396 7.81165 5.02774 7.84113C6.51914 8.06804 7.82405 8.86223 8.98911 9.78137C9.31427 10.0379 9.67004 10.3054 9.91488 10.6425C9.29542 13.825 10.117 17.162 11.7626 19.9144C12.0254 20.3519 12.3093 20.7762 12.6134 21.1863C12.7585 21.3817 12.9313 21.559 13.0615 21.7641L13.0154 21.824C10.3021 20.6636 7.76028 18.6103 6.12513 16.1561C4.4097 13.5811 3.84247 10.8074 4.44035 7.77867Z" fill="#0D0B0A"/>
<path d="M27.7125 14.8808C28.1451 14.8291 29.1147 14.7746 29.4773 15.0055C29.4956 15.06 29.5011 15.0654 29.503 15.1317C29.5102 15.3855 29.3444 15.7654 29.2584 16.0022C28.683 17.6361 27.6978 19.0951 26.3972 20.2394C23.8513 22.4905 20.5513 23.2981 17.2185 23.0838C16.589 23.018 15.94 22.9742 15.335 22.7813C18.1273 21.9224 20.7835 20.1678 22.708 17.9766C23.1811 17.4378 23.5279 16.8123 23.9882 16.2706C24.8618 15.2422 26.4459 14.9704 27.7125 14.8808Z" fill="#0D0B0A"/>
<path d="M1.03684 14.966C2.3381 14.8126 4.1038 15.0269 5.17562 15.837C5.81285 16.3188 6.19686 17.2132 6.72352 17.8221C8.37045 19.7293 10.4332 21.2331 12.7528 22.2176C13.2467 22.4291 13.7552 22.6497 14.2775 22.7783L13.2335 22.9528C10.1933 23.3902 7.04279 22.847 4.44149 21.1557C2.67004 20.0036 1.42275 18.4238 0.689454 16.4533C0.581795 16.1644 0.420648 15.8507 0.3656 15.5496C0.333449 15.3738 0.361752 15.2578 0.46449 15.1087C0.628025 14.9884 0.840615 14.9899 1.03684 14.966Z" fill="#0D0B0A"/>
<path d="M54.1319 12.3387C55.1452 12.3303 56.2505 12.2396 57.2511 12.3856C57.8949 12.4795 58.5489 12.7098 58.9405 13.2615C59.2284 13.668 59.3226 14.2388 59.2335 14.7244C59.1243 15.3186 58.7475 15.6622 58.2706 15.9822C58.3851 16.0305 58.4979 16.083 58.6075 16.1414C59.0289 16.3694 59.3271 16.7646 59.4503 17.2254C59.6187 17.8551 59.4836 18.5037 59.17 19.0623C59.0994 19.1695 59.016 19.2642 58.9229 19.3524C57.9612 20.2643 55.853 20.0877 54.6104 20.076C54.3713 20.074 54.0563 20.0956 53.878 19.9139C53.8347 19.8228 53.8175 19.7627 53.8116 19.66C53.7298 18.3253 53.8043 16.9404 53.8038 15.6014C53.8033 14.6529 53.7084 13.4184 53.8321 12.5018C53.9276 12.3822 53.9882 12.383 54.1319 12.3387ZM57.5265 17.032C56.9898 16.6819 56.086 16.783 55.463 16.784L55.4649 18.5135C56.1552 18.5184 56.962 18.6249 57.5743 18.2547C57.7185 18.0423 57.8633 17.7263 57.8214 17.4617C57.7912 17.2695 57.6861 17.1362 57.5265 17.032ZM57.2706 13.9569C56.7586 13.6488 56.0398 13.7272 55.464 13.7303V15.3904C56.0817 15.3953 56.8187 15.4863 57.3585 15.1375C57.5036 14.9296 57.6438 14.6313 57.589 14.369C57.549 14.1764 57.4347 14.0555 57.2706 13.9569Z" fill="#0D0B0A"/>
<path d="M44.6848 14.136C44.8392 14.1232 44.9948 14.1312 45.1467 14.1604C45.6103 14.2533 45.8363 14.5945 46.0842 14.9583C46.0983 14.8311 46.1082 14.6938 46.1379 14.5696C46.1686 14.4401 46.2393 14.3604 46.3557 14.2981C46.5429 14.1985 46.9451 14.1921 47.1409 14.2649C47.2839 14.3182 47.4431 14.4423 47.4924 14.592C47.6381 15.0349 47.5816 19.3703 47.4973 19.9631C47.4417 20.3537 47.3205 20.739 47.1233 21.0813C46.8057 21.6337 46.2649 21.9938 45.6575 22.1585C44.8011 22.3898 43.8271 22.3161 43.0627 21.8557C42.7217 21.6506 42.562 21.3866 42.4719 21.0061C42.5007 20.8687 42.5347 20.7349 42.6526 20.6458C43.0354 20.3565 43.8625 20.8421 44.2873 20.9212C44.6532 20.9889 45.0478 20.9519 45.3518 20.7219C45.8531 20.3439 45.936 19.6449 46.0217 19.0686C45.6861 19.4272 45.3672 19.7159 44.8723 19.8372C44.3361 19.969 43.7486 19.8784 43.2873 19.5725C42.6799 19.1701 42.3412 18.4795 42.217 17.7786C42.0656 16.9252 42.1978 15.9043 42.7151 15.1897C43.2086 14.509 43.8873 14.2581 44.6848 14.136ZM44.7756 15.4426C44.3763 15.5931 44.1556 15.7781 43.9846 16.176C43.7737 16.6651 43.7678 17.374 43.9739 17.8645C44.0825 18.1232 44.3007 18.396 44.5754 18.4885C44.7566 18.5493 44.9758 18.5232 45.1623 18.51C45.4912 18.3926 45.6783 18.2539 45.8342 17.9348C46.0742 17.4443 46.0817 16.7528 45.8987 16.2405C45.7925 15.9429 45.5824 15.6504 45.2844 15.5217C45.1319 15.456 44.9403 15.4344 44.7756 15.4426Z" fill="#0D0B0A"/>
<path d="M77.8532 14.1822C78.2453 14.1302 78.6316 14.1478 79.0018 14.3012C79.5133 14.513 79.7788 14.8988 79.9815 15.3913C80.0853 15.1312 80.1997 14.8691 80.3834 14.6538C80.6737 14.3121 81.0542 14.1762 81.4946 14.1593C82.0017 14.1398 82.5215 14.2563 82.8936 14.6206C83.1382 14.8603 83.2882 15.1813 83.3701 15.5102C83.5878 16.386 83.466 18.2679 83.469 19.2578C83.4694 19.4093 83.4884 19.8881 83.3701 19.9778C83.1684 20.1297 82.4542 20.0961 82.2029 20.0606C82.0562 20.0401 81.9656 19.9612 81.9052 19.8282C81.8122 19.6236 81.8619 19.2582 81.8648 19.0317C81.8745 18.2976 82.0553 16.2686 81.6207 15.7333C81.5209 15.6105 81.3796 15.5335 81.2203 15.5223C80.9865 15.5058 80.6888 15.5866 80.5188 15.7532C79.9167 16.3432 80.1164 18.4408 80.1213 19.2656C80.1228 19.4322 80.1286 19.6143 80.1081 19.7795C80.0989 19.8526 80.0736 19.9373 80.0068 19.9753C79.7501 20.1224 79.1256 20.1005 78.8425 20.0343C78.6949 19.9997 78.6321 19.95 78.5795 19.8068C78.4923 19.5695 78.541 19.2183 78.5454 18.9674C78.5585 18.2318 78.7329 16.4026 78.3588 15.8512C78.2463 15.6855 78.0792 15.5847 77.8824 15.5525C77.6588 15.516 77.4259 15.5457 77.2437 15.6894C76.5116 16.2672 76.7118 18.2922 76.7152 19.1292C76.7162 19.3303 76.7571 19.6182 76.7103 19.8063C76.6913 19.8847 76.6684 19.9325 76.6012 19.9768C76.3659 20.1312 75.7277 20.0981 75.4462 20.0426C75.3278 20.0192 75.2523 19.9466 75.2011 19.8394C75.129 19.6869 75.1076 15.2861 75.1344 14.8501C75.1417 14.7288 75.167 14.5992 75.2226 14.4899C75.2942 14.3497 75.414 14.2584 75.5611 14.2108C75.9095 14.0984 76.344 14.2229 76.6519 14.3939C76.7259 14.6689 76.6728 15.0289 76.6611 15.3158C76.6972 15.2427 76.7337 15.1696 76.7712 15.0975C77.043 14.5724 77.2983 14.3584 77.8532 14.1822Z" fill="#0D0B0A"/>
<path d="M71.5206 14.2048C73.1413 14.1712 74.4885 15.4473 74.542 17.068C74.5956 18.6882 73.3365 20.0501 71.7169 20.1237C70.6515 20.1724 69.6418 19.6441 69.0743 18.7409C68.5074 17.8374 68.4693 16.699 68.9756 15.7604C69.4817 14.8213 70.4543 14.227 71.5206 14.2048ZM71.3213 15.4928C70.8859 15.6862 70.6491 15.9081 70.4805 16.363C70.2789 16.907 70.3114 17.6669 70.5694 18.1862C70.7087 18.4658 70.9251 18.6933 71.2256 18.7936C71.4315 18.8627 71.6243 18.8735 71.835 18.8239C72.2525 18.649 72.5024 18.4264 72.6739 17.9987C72.8885 17.4625 72.8864 16.7459 72.6397 16.2204C72.4853 15.8916 72.2102 15.6205 71.8575 15.5163C71.6851 15.4652 71.4981 15.4768 71.3213 15.4928Z" fill="#0D0B0A"/>
<path d="M38.7047 14.2135C40.3359 14.1398 41.7184 15.401 41.7945 17.0318C41.871 18.6632 40.6119 20.048 38.9811 20.1266C37.3468 20.205 35.9589 18.9429 35.8824 17.3082C35.8062 15.6739 37.0702 14.2875 38.7047 14.2135ZM39.1656 15.5318C38.9767 15.4672 38.7823 15.468 38.5865 15.4928C38.1497 15.7086 37.8998 15.9343 37.733 16.4117C37.5444 16.9524 37.5723 17.7245 37.8443 18.232C37.9928 18.509 38.2172 18.7117 38.5201 18.8043C38.7061 18.8613 38.9169 18.8662 39.1061 18.8209C39.5224 18.648 39.7667 18.4238 39.9342 17.9967C40.1466 17.455 40.1291 16.7404 39.8834 16.2115C39.7391 15.9008 39.4938 15.6443 39.1656 15.5318Z" fill="#0D0B0A"/>
<path d="M64.8877 14.2457C65.9383 14.0759 66.9983 14.4839 67.6651 15.3131C68.3314 16.1426 68.5015 17.2661 68.1094 18.2555C67.7168 19.2444 66.8233 19.9472 65.7696 20.0943C64.1644 20.3189 62.6772 19.2087 62.4356 17.606C62.1937 16.0035 63.2881 14.5046 64.8877 14.2457ZM65.1289 15.4898C64.6905 15.6764 64.4381 15.8884 64.2608 16.3424C64.0528 16.8748 64.0734 17.6122 64.3194 18.1295C64.468 18.4415 64.7207 18.6981 65.0547 18.8043C65.2218 18.8578 65.4116 18.857 65.584 18.8355C66.0212 18.6509 66.2759 18.4442 66.4571 17.9898C66.6674 17.4618 66.664 16.7332 66.419 16.2174C66.2733 15.911 66.0256 15.6526 65.7012 15.5377C65.5182 15.473 65.3202 15.4738 65.1289 15.4898Z" fill="#0D0B0A"/>
<path d="M50.1029 14.1848C50.4731 14.1409 50.83 14.1482 51.1947 14.2327C51.7486 14.3611 52.213 14.6831 52.4955 15.18C52.6465 15.4459 52.7339 15.7383 52.7758 16.0403C52.8405 16.5073 52.8771 19.4594 52.7709 19.8655C52.6818 19.9793 52.5923 20.0204 52.4535 20.0501C52.2168 20.1003 51.6977 20.1307 51.5063 19.9534C51.3392 19.799 51.3734 19.4759 51.3715 19.2679C51.0939 19.678 50.8145 20.0088 50.31 20.135C49.7463 20.2753 49.2234 20.1105 48.7377 19.8304C48.531 19.6397 48.3737 19.4445 48.2846 19.1741C48.1346 18.7178 48.1828 18.1023 48.4164 17.6819C48.983 16.6623 50.3181 16.7232 51.2943 16.4358L51.3549 16.4173C51.3155 16.2953 51.2775 16.1707 51.227 16.053C50.6746 14.7794 49.2973 16.1706 48.6313 15.8206C48.4968 15.75 48.3997 15.6069 48.3656 15.4612C48.32 15.2675 48.3723 15.1424 48.4779 14.9817C48.8355 14.4362 49.5058 14.2987 50.1029 14.1848ZM51.2895 17.5882C50.8836 17.6997 50.1223 17.8225 49.8803 18.1907C49.8016 18.311 49.795 18.4685 49.8461 18.6009C49.8822 18.6942 49.9528 18.776 50.015 18.8528C50.4345 18.8811 50.6974 18.8502 51.018 18.5589C51.2123 18.3816 51.3905 18.0968 51.3813 17.8225C51.3788 17.7544 51.3597 17.6852 51.3441 17.6194L51.2895 17.5882Z" fill="#0D0B0A"/>
<path d="M33.5486 15.2812C33.6939 14.8194 34.8251 12.6097 35.1855 12.4022C35.3727 12.2944 36.3721 12.278 36.5728 12.3698C36.7016 12.4288 36.7155 12.4636 36.7739 12.5839C36.671 13.156 35.4069 15.0761 35.033 15.7021L34.376 16.7943C34.3786 17.4509 34.4941 19.4551 34.2652 19.9305C34.1848 19.9919 34.128 20.026 34.0275 20.0494C33.7192 20.1215 33.1054 20.1 32.8335 19.929C32.623 19.6519 32.7331 17.3511 32.7335 16.842C32.3977 16.3052 30.2305 12.8449 30.2877 12.5144C30.3593 12.4114 30.4055 12.3856 30.5215 12.34C30.887 12.3292 31.6303 12.2323 31.9328 12.4159C32.3252 12.6542 33.4027 14.795 33.5486 15.2812Z" fill="#0D0B0A"/>
<path d="M60.3861 12.339C60.7695 12.3291 61.3969 12.2332 61.7277 12.4313C61.8207 13.0629 61.7842 13.7313 61.7857 14.3683L61.7896 17.3184C61.7896 18.0886 61.8743 19.0156 61.7749 19.7717C61.7555 19.9222 61.6624 19.9714 61.5533 20.0576C61.1538 20.0708 60.5396 20.1697 60.2107 19.91C60.1333 19.6148 60.0846 12.8047 60.1591 12.5357C60.1946 12.4083 60.2784 12.3937 60.3861 12.339Z" fill="#0D0B0A"/>
<path d="M14.929 22.9844C15.4579 23.1725 15.9901 23.323 16.5449 23.4131C17.5008 23.568 18.6113 23.5227 19.4701 24.0206C20.1042 24.3884 20.7536 25.2496 20.9329 25.9638C20.9657 26.0948 20.9562 26.1056 20.8891 26.2142C20.2254 26.4534 19.5807 26.3964 18.9203 26.1801C17.3294 25.6598 15.7077 24.5004 14.929 22.9844Z" fill="#0D0B0A"/>
<path d="M14.6297 22.9883C14.6632 22.9854 14.6954 23.0029 14.7279 23.0122C14.7262 23.0273 14.7265 23.0429 14.7229 23.058C14.6412 23.3965 13.3315 24.7771 13.0291 25.0163C11.984 25.8415 10.4323 26.4967 9.08407 26.3355C9.04802 26.3277 8.99794 26.3179 8.96511 26.3028C8.89252 26.2692 8.84654 26.2424 8.82739 26.164C8.77629 25.9531 8.89618 25.7085 8.99205 25.5253C9.3009 24.9349 9.78453 24.2422 10.3904 23.9231C11.1373 23.5305 12.2401 23.532 13.0701 23.3843C13.6018 23.2898 14.1142 23.1456 14.6297 22.9883Z" fill="#0D0B0A"/>
</g>
<defs>
<clipPath id="clip0_8202_61875">
<rect width="83.147" height="23.5097" fill="white" transform="translate(0.353027 2.85989)"/>
</clipPath>
</defs>
</svg>
