<svg aria-hidden="true" style="position:absolute;width:0;height:0;overflow:hidden" xmlns="http://www.w3.org/2000/svg">
  <defs>
    <symbol id="icon-facebook" viewBox="0 0 32 32">
      <path
        d="M31.238 16.604c0-8.467-6.822-15.331-15.238-15.331s-15.238 6.864-15.238 15.331c0 7.652 5.572 13.995 12.857 15.145v-10.713h-3.869v-4.432h3.869v-3.378c0-3.842 2.275-5.965 5.756-5.965 1.667 0 3.411 0.299 3.411 0.299v3.773h-1.921c-1.893 0-2.483 1.182-2.483 2.394v2.876h4.226l-0.675 4.432h-3.551v10.713c7.285-1.15 12.857-7.493 12.857-15.145z">
      </path>
    </symbol>
    <symbol id="icon-instagram" viewBox="0 0 32 32" fill="none">
      <path fill-rule="evenodd" clip-rule="evenodd" fill="#0D0B0A"
        d="M22.737 1.406h-13.474c-4.651 0-8.421 3.77-8.421 8.421v13.474c0 4.651 3.77 8.421 8.421 8.421h13.474c4.651 0 8.421-3.77 8.421-8.421v-13.474c0-4.651-3.77-8.421-8.421-8.421zM28.211 23.301c-0.009 3.019-2.455 5.464-5.474 5.474h-13.474c-3.019-0.009-5.464-2.455-5.474-5.474v-13.474c0.009-3.019 2.454-5.464 5.474-5.474h13.474c3.019 0.009 5.464 2.454 5.474 5.474v13.474zM24 10.248c0.93 0 1.684-0.754 1.684-1.684s-0.754-1.684-1.684-1.684c-0.93 0-1.684 0.754-1.684 1.684s0.754 1.684 1.684 1.684zM16 8.985c-4.186 0-7.579 3.393-7.579 7.579s3.393 7.579 7.579 7.579c4.186 0 7.579-3.393 7.579-7.579 0.005-2.011-0.793-3.942-2.215-5.364s-3.353-2.219-5.364-2.215zM11.368 16.564c0 2.558 2.074 4.632 4.632 4.632s4.632-2.074 4.632-4.632c0-2.558-2.074-4.632-4.632-4.632s-4.632 2.074-4.632 4.632z">
      </path>
    </symbol>
    <symbol id="icon-youtube" viewBox="0 0 45 32">
      <path
        d="M42.865 5.963c-0.243-0.902-0.718-1.724-1.377-2.385s-1.481-1.138-2.382-1.383c-3.341-0.917-16.706-0.932-16.706-0.932s-13.363-0.015-16.706 0.862c-0.9 0.256-1.72 0.74-2.38 1.404s-1.138 1.487-1.388 2.389c-0.881 3.341-0.89 10.27-0.89 10.27s-0.009 6.963 0.866 10.27c0.491 1.828 1.931 3.273 3.761 3.765 3.375 0.917 16.704 0.932 16.704 0.932s13.365 0.015 16.706-0.86c0.901-0.245 1.723-0.72 2.384-1.38s1.139-1.481 1.385-2.381c0.883-3.339 0.89-10.266 0.89-10.266s0.043-6.965-0.868-10.306zM18.125 22.608l0.011-12.8 11.108 6.411-11.119 6.389z">
      </path>
    </symbol>
    <symbol id="icon-linkedin" viewBox="0 0 19 19" xmlns="http://www.w3.org/2000/svg">
      <path fill="#0D0B0A" fill-rule="evenodd" clip-rule="evenodd"
        d="M2 0.834961C1.17157 0.834961 0.5 1.50653 0.5 2.33496V17.335C0.5 18.1634 1.17157 18.835 2 18.835H17C17.8284 18.835 18.5 18.1634 18.5 17.335V2.33496C18.5 1.50653 17.8284 0.834961 17 0.834961H2ZM6.02076 4.83768C6.02639 5.79393 5.31061 6.38315 4.46123 6.37893C3.66107 6.37471 2.96357 5.73768 2.96779 4.83909C2.97201 3.99393 3.63998 3.31471 4.50764 3.3344C5.38795 3.35409 6.02639 3.99956 6.02076 4.83768ZM9.7797 7.59672H7.25971V16.1566H9.9217V14.8169C9.9203 13.8031 9.9194 12.7882 9.9246 11.7747C9.926 11.5286 9.9372 11.2727 10.0005 11.0378C10.2381 10.1603 11.0271 9.59356 11.9074 9.73286C12.4727 9.82136 12.8467 10.1491 13.0042 10.6821C13.1013 11.0153 13.1449 11.3739 13.1491 11.7213C13.1605 12.7689 13.1589 13.8165 13.1573 14.8642C13.1567 15.234 13.1561 15.604 13.1561 15.9738V16.1552H15.828V14.5941C15.827 13.4646 15.8264 12.3351 15.8294 11.2052C15.8308 10.6947 15.776 10.1913 15.6508 9.69766C15.4638 8.96356 15.0771 8.35606 14.4485 7.91736C14.0027 7.60515 13.5133 7.40406 12.9663 7.38156C12.904 7.37897 12.8412 7.37558 12.7781 7.37217C12.4984 7.35705 12.2141 7.34169 11.9467 7.39562C11.1817 7.5489 10.5096 7.89906 10.0019 8.51636C9.9429 8.58716 9.8852 8.65906 9.7991 8.76636L9.7797 8.79066V7.59672ZM3.18164 16.1594H5.83242V7.60229H3.18164V16.1594Z" />
    </symbol>
    <symbol id="burger-icon" viewBox="0 0 43 32">
      <path
        d="M0 0h42.667v5.333h-42.667v-5.333zM0 13.333h42.667v5.333h-42.667v-5.333zM0 26.667h42.667v5.333h-42.667v-5.333z">
      </path>
    </symbol>
    <symbol id="icon-vector" viewBox="0 0 44 32">
      <path
        d="M42.703 3.849l-26.092 26.092c-0.231 0.233-0.546 0.364-0.874 0.364s-0.643-0.131-0.874-0.364l-13.268-13.268c-0.233-0.231-0.364-0.545-0.364-0.874s0.131-0.643 0.364-0.874l1.723-1.723c0.231-0.233 0.546-0.364 0.874-0.364s0.643 0.131 0.874 0.364l10.658 10.658 23.508-23.508c0.487-0.472 1.261-0.472 1.748 0l1.723 1.748c0.233 0.231 0.364 0.546 0.364 0.874s-0.131 0.643-0.364 0.874z">
      </path>
    </symbol>
    <symbol id="logo-icon" viewBox="0 0 75 32">
      <path
        d="M13.131 2.542c0.332 0.165 0.705 0.638 0.955 0.918 2.148 2.4 3.275 5.457 3.076 8.674-0.193 3.114-1.731 5.879-4.039 7.922-0.437-0.299-0.837-0.724-1.187-1.119-1.961-2.218-3.035-5.333-2.848-8.289 0.193-3.047 1.751-6.097 4.042-8.106z">
      </path>
      <path
        d="M22.274 6.9c0.006 0.011 0.014 0.021 0.019 0.032 0.122 0.249 0.158 0.644 0.189 0.92 0.162 1.437 0.028 2.878-0.478 4.239-1.263 3.4-4.182 5.902-7.409 7.385-0.038-0-0.013 0.003-0.071-0.031 0.197-0.323 0.472-0.611 0.7-0.914 0.348-0.473 0.663-0.97 0.944-1.485 0.989-1.819 1.461-3.82 1.46-5.883-0-0.586-0.014-1.171-0.183-1.737 0.303-0.336 0.674-0.619 1.034-0.891 1.16-0.878 2.329-1.489 3.796-1.635z">
      </path>
      <path
        d="M3.947 6.914c0.174 0.007 0.35 0.029 0.522 0.056 1.326 0.202 2.486 0.908 3.521 1.725 0.289 0.228 0.605 0.466 0.823 0.765-0.551 2.829 0.18 5.795 1.642 8.242 0.234 0.389 0.486 0.766 0.756 1.131 0.129 0.174 0.283 0.331 0.398 0.514l-0.041 0.053c-2.412-1.031-4.671-2.857-6.125-5.038-1.525-2.289-2.029-4.754-1.498-7.447z">
      </path>
      <path
        d="M24.633 13.227c0.385-0.046 1.246-0.094 1.569 0.111 0.016 0.048 0.021 0.053 0.023 0.112 0.006 0.226-0.141 0.563-0.217 0.774-0.511 1.452-1.387 2.749-2.543 3.766-2.263 2.001-5.196 2.719-8.159 2.528-0.56-0.058-1.136-0.097-1.674-0.269 2.482-0.763 4.843-2.323 6.554-4.271 0.421-0.479 0.729-1.035 1.138-1.516 0.777-0.914 2.185-1.156 3.311-1.235z">
      </path>
      <path
        d="M0.922 13.303c1.157-0.136 2.726 0.054 3.679 0.774 0.566 0.428 0.908 1.223 1.376 1.765 1.464 1.695 3.297 3.032 5.359 3.907 0.439 0.188 0.891 0.384 1.355 0.498l-0.928 0.155c-2.702 0.389-5.503-0.094-7.815-1.597-1.575-1.024-2.683-2.428-3.335-4.18-0.096-0.257-0.239-0.536-0.288-0.803-0.029-0.156-0.003-0.259 0.088-0.392 0.145-0.107 0.334-0.106 0.509-0.127z">
      </path>
      <path
        d="M48.117 10.968c0.901-0.007 1.883-0.088 2.773 0.042 0.572 0.083 1.154 0.288 1.502 0.779 0.256 0.361 0.34 0.869 0.26 1.3-0.097 0.528-0.432 0.834-0.856 1.118 0.102 0.043 0.202 0.090 0.299 0.142 0.375 0.203 0.64 0.554 0.749 0.964 0.15 0.56 0.030 1.136-0.249 1.633-0.063 0.095-0.137 0.179-0.22 0.258-0.855 0.811-2.729 0.654-3.833 0.643-0.213-0.002-0.493 0.017-0.651-0.144-0.038-0.081-0.054-0.134-0.059-0.226-0.073-1.186-0.007-2.417-0.007-3.608-0-0.843-0.085-1.94 0.025-2.755 0.085-0.106 0.139-0.106 0.267-0.145zM51.135 15.14c-0.477-0.311-1.28-0.221-1.834-0.22l0.002 1.537c0.614 0.004 1.331 0.099 1.875-0.23 0.128-0.189 0.257-0.47 0.22-0.705-0.027-0.171-0.12-0.289-0.262-0.382zM50.907 12.406c-0.455-0.274-1.094-0.204-1.606-0.201v1.476c0.549 0.004 1.204 0.085 1.684-0.225 0.129-0.185 0.254-0.45 0.205-0.683-0.036-0.171-0.137-0.279-0.283-0.366z">
      </path>
      <path
        d="M39.72 12.565c0.137-0.011 0.276-0.004 0.411 0.022 0.412 0.083 0.613 0.386 0.833 0.709 0.013-0.113 0.021-0.235 0.048-0.345 0.027-0.115 0.090-0.186 0.194-0.241 0.166-0.089 0.524-0.094 0.698-0.030 0.127 0.047 0.269 0.158 0.312 0.291 0.13 0.394 0.079 4.247 0.004 4.774-0.049 0.347-0.157 0.69-0.332 0.994-0.282 0.491-0.763 0.811-1.303 0.957-0.761 0.206-1.627 0.14-2.306-0.269-0.303-0.182-0.445-0.417-0.525-0.755 0.026-0.122 0.056-0.241 0.161-0.32 0.34-0.257 1.075 0.174 1.453 0.245 0.325 0.060 0.676 0.027 0.946-0.177 0.446-0.336 0.519-0.957 0.595-1.47-0.298 0.319-0.582 0.575-1.022 0.683-0.477 0.117-0.999 0.037-1.409-0.235-0.54-0.358-0.841-0.972-0.951-1.595-0.135-0.759-0.017-1.666 0.443-2.301 0.439-0.605 1.042-0.828 1.751-0.937zM39.801 13.727c-0.355 0.134-0.551 0.298-0.703 0.652-0.187 0.435-0.193 1.065-0.010 1.501 0.097 0.23 0.291 0.472 0.535 0.555 0.161 0.054 0.356 0.031 0.522 0.019 0.292-0.104 0.459-0.228 0.597-0.511 0.213-0.436 0.22-1.051 0.057-1.506-0.094-0.265-0.281-0.525-0.546-0.639-0.136-0.058-0.306-0.078-0.452-0.070z">
      </path>
      <path
        d="M69.203 12.606c0.349-0.046 0.692-0.031 1.021 0.106 0.455 0.188 0.691 0.531 0.871 0.969 0.092-0.231 0.194-0.464 0.357-0.656 0.258-0.304 0.596-0.425 0.988-0.44 0.451-0.017 0.913 0.086 1.244 0.41 0.217 0.213 0.351 0.498 0.424 0.791 0.194 0.778 0.085 2.451 0.088 3.331 0 0.135 0.017 0.56-0.088 0.64-0.179 0.135-0.814 0.105-1.037 0.074-0.13-0.018-0.211-0.088-0.265-0.207-0.083-0.182-0.038-0.507-0.036-0.708 0.009-0.653 0.169-2.456-0.217-2.932-0.089-0.109-0.214-0.178-0.356-0.188-0.208-0.015-0.472 0.057-0.624 0.205-0.535 0.524-0.358 2.389-0.353 3.122 0.001 0.148 0.007 0.31-0.012 0.457-0.008 0.065-0.031 0.14-0.090 0.174-0.228 0.131-0.783 0.111-1.035 0.052-0.131-0.031-0.187-0.075-0.234-0.202-0.078-0.211-0.034-0.523-0.030-0.746 0.012-0.654 0.167-2.28-0.166-2.77-0.1-0.147-0.249-0.237-0.423-0.265-0.199-0.032-0.406-0.006-0.568 0.122-0.651 0.514-0.473 2.314-0.47 3.058 0.001 0.179 0.037 0.435-0.004 0.602-0.017 0.070-0.037 0.112-0.097 0.152-0.209 0.137-0.776 0.108-1.027 0.058-0.105-0.021-0.172-0.085-0.218-0.181-0.064-0.136-0.083-4.047-0.059-4.435 0.007-0.108 0.029-0.223 0.078-0.32 0.064-0.125 0.17-0.206 0.301-0.248 0.31-0.1 0.696 0.011 0.97 0.163 0.066 0.244 0.019 0.564 0.008 0.819 0.032-0.065 0.065-0.13 0.098-0.194 0.242-0.467 0.469-0.657 0.962-0.814z">
      </path>
      <path
        d="M63.574 12.627c1.441-0.030 2.638 1.104 2.686 2.545s-1.072 2.651-2.511 2.716c-0.947 0.043-1.845-0.426-2.349-1.229s-0.538-1.815-0.088-2.649c0.45-0.835 1.314-1.363 2.262-1.383zM63.397 13.771c-0.387 0.172-0.597 0.369-0.747 0.774-0.179 0.484-0.15 1.159 0.079 1.621 0.124 0.249 0.316 0.451 0.583 0.54 0.183 0.061 0.354 0.071 0.542 0.027 0.371-0.155 0.593-0.353 0.746-0.733 0.191-0.477 0.189-1.114-0.030-1.581-0.137-0.292-0.382-0.533-0.695-0.626-0.153-0.045-0.319-0.035-0.477-0.021z">
      </path>
      <path
        d="M34.404 12.634c1.45-0.066 2.679 1.056 2.746 2.505s-1.051 2.681-2.501 2.751c-1.453 0.070-2.686-1.052-2.754-2.505s1.056-2.685 2.509-2.751zM34.814 13.806c-0.168-0.057-0.341-0.057-0.515-0.035-0.388 0.192-0.61 0.392-0.759 0.817-0.168 0.481-0.143 1.167 0.099 1.618 0.132 0.246 0.331 0.426 0.601 0.509 0.165 0.051 0.353 0.055 0.521 0.015 0.37-0.154 0.587-0.353 0.736-0.733 0.189-0.482 0.173-1.117-0.045-1.587-0.128-0.276-0.346-0.504-0.638-0.604z">
      </path>
      <path
        d="M57.678 12.663c0.934-0.151 1.876 0.212 2.469 0.949s0.743 1.736 0.395 2.615c-0.349 0.879-1.143 1.504-2.080 1.634-1.427 0.2-2.749-0.787-2.964-2.212s0.758-2.757 2.18-2.987zM57.892 13.769c-0.39 0.166-0.614 0.354-0.772 0.758-0.185 0.473-0.167 1.129 0.052 1.589 0.132 0.277 0.357 0.505 0.654 0.6 0.149 0.048 0.317 0.047 0.471 0.028 0.389-0.164 0.615-0.348 0.776-0.752 0.187-0.469 0.184-1.117-0.034-1.575-0.13-0.272-0.35-0.502-0.638-0.604-0.163-0.057-0.339-0.057-0.509-0.043z">
      </path>
      <path
        d="M44.536 12.609c0.329-0.039 0.646-0.033 0.971 0.043 0.492 0.114 0.905 0.4 1.156 0.842 0.134 0.236 0.212 0.496 0.249 0.765 0.057 0.415 0.090 3.039-0.004 3.4-0.079 0.101-0.159 0.138-0.282 0.164-0.21 0.045-0.672 0.072-0.842-0.086-0.149-0.137-0.118-0.424-0.12-0.609-0.247 0.365-0.495 0.659-0.944 0.771-0.501 0.125-0.966-0.022-1.398-0.271-0.184-0.169-0.324-0.343-0.403-0.583-0.133-0.406-0.090-0.953 0.117-1.326 0.504-0.906 1.69-0.852 2.558-1.108l0.054-0.016c-0.035-0.108-0.069-0.219-0.114-0.324-0.491-1.132-1.715 0.105-2.307-0.207-0.12-0.063-0.206-0.19-0.236-0.319-0.041-0.172 0.006-0.283 0.1-0.426 0.318-0.485 0.914-0.607 1.444-0.708zM45.591 15.634c-0.361 0.099-1.038 0.208-1.253 0.536-0.070 0.107-0.076 0.247-0.030 0.365 0.032 0.083 0.095 0.156 0.15 0.224 0.373 0.025 0.607-0.002 0.892-0.261 0.173-0.158 0.331-0.411 0.323-0.655-0.002-0.061-0.019-0.122-0.033-0.181l-0.049-0.028z">
      </path>
      <path
        d="M29.821 13.583c0.129-0.411 1.135-2.375 1.455-2.559 0.166-0.096 1.055-0.11 1.233-0.029 0.114 0.052 0.127 0.083 0.179 0.19-0.091 0.509-1.215 2.215-1.547 2.772l-0.584 0.971c0.002 0.584 0.105 2.365-0.099 2.788-0.071 0.055-0.122 0.085-0.211 0.106-0.274 0.064-0.82 0.045-1.061-0.107-0.187-0.246-0.089-2.291-0.089-2.744-0.299-0.477-2.225-3.553-2.174-3.847 0.064-0.092 0.105-0.114 0.208-0.155 0.325-0.010 0.986-0.096 1.255 0.067 0.349 0.212 1.307 2.115 1.436 2.547z">
      </path>
      <path
        d="M53.677 10.968c0.341-0.009 0.898-0.094 1.193 0.082 0.083 0.561 0.050 1.156 0.052 1.722l0.003 2.622c0 0.685 0.075 1.509-0.013 2.181-0.017 0.134-0.1 0.177-0.197 0.254-0.355 0.012-0.901 0.1-1.193-0.131-0.069-0.262-0.112-6.316-0.046-6.555 0.032-0.113 0.106-0.126 0.202-0.175z">
      </path>
      <path
        d="M13.27 20.431c0.47 0.167 0.943 0.301 1.436 0.381 0.85 0.138 1.837 0.097 2.6 0.54 0.564 0.327 1.141 1.092 1.3 1.727 0.029 0.116 0.021 0.126-0.039 0.223-0.59 0.213-1.163 0.162-1.75-0.030-1.414-0.462-2.856-1.493-3.548-2.841z">
      </path>
      <path
        d="M13.004 20.434c0.030-0.003 0.058 0.013 0.087 0.021-0.002 0.013-0.001 0.027-0.004 0.041-0.073 0.301-1.237 1.528-1.506 1.741-0.929 0.733-2.308 1.316-3.507 1.173-0.032-0.007-0.077-0.016-0.106-0.029-0.065-0.030-0.105-0.054-0.122-0.123-0.045-0.187 0.061-0.405 0.146-0.568 0.275-0.525 0.704-1.141 1.243-1.424 0.664-0.349 1.644-0.348 2.382-0.479 0.473-0.084 0.928-0.212 1.386-0.352z">
      </path>
    </symbol>
    <symbol id="close-icon" viewBox="0 0 32 32">
      <path
        d="M29.671 28.728l-0.943 0.943c-0.521 0.521-1.365 0.521-1.886 0l-10.842-10.842-10.842 10.842c-0.521 0.521-1.365 0.521-1.886 0l-0.943-0.943c-0.521-0.521-0.521-1.365 0-1.886l10.842-10.842-10.842-10.842c-0.521-0.521-0.521-1.365 0-1.886l0.943-0.943c0.521-0.521 1.365-0.521 1.886 0l10.842 10.842 10.842-10.842c0.521-0.521 1.365-0.521 1.886 0l0.943 0.943c0.521 0.521 0.521 1.365 0 1.886l-10.842 10.842 10.842 10.842c0.521 0.521 0.521 1.365 0 1.886z">
      </path>
    </symbol>
  </defs>
</svg>